<svg width="77" height="56" viewBox="0 0 77 56" fill="none" xmlns="http://www.w3.org/2000/svg">
<g clip-path="url(#clip0)">
<path d="M72.6616 42.9182L22.2243 53.9627C19.2433 54.606 16.2889 52.7027 15.6501 49.7003L8.7566 17.7999C8.11782 14.7975 10.0076 11.8219 12.9885 11.1786L63.3992 0.134037C66.3802 -0.509333 69.3346 1.39397 69.9733 4.39636L76.8669 36.2968C77.5323 39.2992 75.6425 42.2748 72.6616 42.9182Z" fill="#E7B022"/>
<path d="M14.0266 33.1336L0 56L21.5323 46.6443L14.0266 33.1336Z" fill="#E7B022"/>
<path d="M42.5058 20.4002C42.559 20.2662 42.6388 20.1321 42.6655 19.9445C43.0647 18.3629 43.5704 16.8617 44.6084 15.5749C47.6426 11.7683 53.7377 12.5189 55.7871 16.9421C56.4525 18.3897 56.6655 19.9177 56.6655 21.5261C56.6655 24.3408 55.521 26.7535 54.2168 29.1393C52.0609 33.0263 49.3461 36.5112 46.3917 39.8085C46.0457 40.2106 45.8061 40.0766 45.4069 39.8889C42.6921 38.5218 40.1103 36.9402 37.6084 35.1977C35.3461 33.6161 33.1902 31.8736 31.4335 29.7291C30.0761 28.067 29.1445 26.1637 28.8252 24.0191C28.213 19.9445 30.3955 16.54 34.7073 15.8162C36.6769 15.4945 38.4335 16.1647 39.8708 17.505C40.8023 18.3629 41.5742 19.3815 42.5058 20.4002Z" fill="white"/>
</g>
<defs>
<clipPath id="clip0">
<rect width="77" height="56" fill="white"/>
</clipPath>
</defs>
</svg>
