<?xml version="1.0" encoding="UTF-8"?>
<!-- Generator: Adobe Illustrator 24.0.3, SVG Export Plug-In . SVG Version: 6.00 Build 0)  -->
<svg xmlns="http://www.w3.org/2000/svg" xmlns:xlink="http://www.w3.org/1999/xlink" version="1.1" id="Layer_1" x="0px" y="0px" viewBox="0 0 400 400" style="enable-background:new 0 0 400 400;" xml:space="preserve">
<style type="text/css">
	.st0{fill:#007074;}
</style>
<g id="_7prXsy.tif">
	<path class="st0" d="M199.1,247.6c0-9.1-0.1-18.3,0-27.4c0-2.2,0.4-4.3,1.1-6.4c0.9-2.8,3.1-3.8,6-3.7c2.5-0.1,4.8,1.6,5.4,4.1   c0.6,2,0.9,4,0.9,6.1c0.1,18.3,0.1,36.6,0,54.9c0,2.1-0.3,4.1-0.9,6.1c-0.6,2.4-2.9,4.1-5.4,4c-2.9,0.1-5.1-1-6-3.7   c-0.6-2-1-4-1-6.1C199.1,266.1,199.1,256.9,199.1,247.6z"></path>
	<path class="st0" d="M394.9,113.5C393.8,94.1,374.8,80,357.3,84c-15.4,3.5-25.3,16-25.6,29.7c0,5.9,1.3,11.6,3.9,16.9   c1.4,3.1,0.5,5.2-2.3,6.6s-5.6,3-8.4,4.4c-11.7,6-23.3,12.1-35.1,18c-6.5,3.2-13.4,5.4-20.8,4.7c-11-1-19.7-6.4-26-15.1   c-7.6-10.2-14.7-20.7-22-31c-4.8-6.9-4.7-8.5,1.3-14.3c8.2-8,10.8-17.8,8.5-28.8c-3.7-17.4-21.6-28.2-38.9-23.7   c-0.4,0.1-0.7,0.2-1.1,0.3c-16.6,4.9-26.1,22.4-21.1,38.9c1.7,5.5,4.7,10.5,8.7,14.6c2.1,2.2,5,4.7,2.9,8.2   c-6.3,10.3-12.4,20.7-19.3,30.5c-4.9,7.2-11.6,13-19.4,16.9c-10.7,5.2-21.4,3-32-0.4C95.3,155.6,82,147,68.8,138.4   c-4.7-3-5.1-4.9-3.3-10.3c1.2-3.6,2.5-7.2,2.8-10.9C69.4,96.5,52.6,80.5,30,84.3c-15.3,2.5-25.8,17.3-24.8,33.3   c1,16.8,16.5,28.9,29.1,28.5c4.4-0.2,7.7,2.1,9.1,6.5c1.9,6.4,4.1,12.7,5.5,19.2c4.2,19.6,8.2,39.2,12,58.9   c3.5,18,6.5,36.1,10.3,54c3.9,18.7,8.4,37.4,13,56c1.8,7.1,4.6,8.9,11.8,8.9h104h103.7c7.9,0,10.5-1.6,12.4-9.5   c4.7-19.7,9.3-39.4,13.3-59.3c5.9-28.9,11-58,16.9-86.9c2.8-13.6,6.5-27.1,10.1-40.6c1.5-5.6,4.2-7.2,9.9-7.4   C385.7,145.5,395.7,126.5,394.9,113.5z"></path>
</g>
</svg>
