<?xml version="1.0" encoding="UTF-8"?>
<svg xmlns="http://www.w3.org/2000/svg" width="14" height="13" viewBox="0 0 14 13" fill="none">
  <path d="M4.56667 1C5.35334 0.886667 6.18667 1.74667 6.42667 2.93333C6.66667 4.11333 6.23334 5.16667 5.44667 5.28667C4.66667 5.40667 3.82667 4.54667 3.58 3.36C3.33333 2.18 3.78 1.12667 4.56667 1ZM9.33334 1C10.1267 1.12667 10.5667 2.18 10.3333 3.36C10.08 4.54667 9.24667 5.40667 8.46 5.28667C7.66667 5.16667 7.23334 4.11333 7.48 2.93333C7.72 1.74667 8.55334 0.886667 9.33334 1ZM1 4.06667C1.76 3.74 2.79333 4.33333 3.33333 5.36667C3.84 6.42 3.66667 7.52667 2.91333 7.85333C2.16 8.18 1.13333 7.59333 0.606668 6.54667C0.0800012 5.5 0.266668 4.38667 1 4.06667ZM13 4.06667C13.7333 4.38667 13.92 5.5 13.3933 6.54667C12.8667 7.59333 11.84 8.18 11.0867 7.85333C10.3333 7.52667 10.16 6.42 10.6667 5.36667C11.2067 4.33333 12.24 3.74 13 4.06667ZM11.8867 11.2533C11.9133 11.88 11.4333 12.5733 10.86 12.8333C9.66667 13.38 8.25334 12.2467 6.92667 12.2467C5.6 12.2467 4.17334 13.4267 3 12.8333C2.33333 12.5067 1.87333 11.64 1.96 10.92C2.08 9.92667 3.27333 9.39333 3.98 8.66667C4.92 7.72667 5.58667 5.96 6.92667 5.96C8.26 5.96 8.96667 7.7 9.86667 8.66667C10.6067 9.48 11.84 10.1667 11.8867 11.2533Z" fill="#006F74"></path>
</svg>
