<?xml version="1.0" encoding="UTF-8"?>
<svg xmlns="http://www.w3.org/2000/svg" id="Layer_1" data-name="Layer 1" viewBox="0 0 500 500">
  <defs>
    <style>.cls-1{fill:#007074;}.cls-2,.cls-3{fill:none;stroke:#007074;stroke-width:13px;}.cls-2{stroke-miterlimit:10;}.cls-3{stroke-linecap:round;stroke-linejoin:round;}</style>
  </defs>
  <path class="cls-1" d="M303.32,320.08c0-54.09-.2-108.19.18-162.29.08-10.25-3.08-15.1-12.88-14.9-27.22.56-54.47.47-81.69,0-8.9-.14-12.46,4.1-12.44,13.93q.38,161.61,0,323.21c0,9.42-13,10.55,12.17,10.44,26.35-.11,52.72.09,79.05.11,36.87,0,16-.9,15.84-13.74C303,424.62,303.32,372.35,303.32,320.08Z"></path>
  <path class="cls-2" d="M199.77,221.32c-.18-19.44-.54-38.89.15-58.3.34-9.48-2.76-12.06-12.06-12-45.35.43-90.7.19-136.06.2-8.1,0-16.24-.42-24.27.3-2.41.21-6.45,3.59-6.49,5.58-.43,22.43-.31,44.88-.29,67.61a4.63,4.63,0,0,0,3.71,4.59,3.64,3.64,0,0,0,.56,0c55.72.07,111.44,0,167.16.23C198.39,229.63,199.83,226.83,199.77,221.32Z"></path>
  <path class="cls-2" d="M479.25,156.67a5.25,5.25,0,0,0-4.75-5.28h-.38q-83.1-.09-166.19-.18c-7.69,0-37.77,4.22-36.7,13.56a220.62,220.62,0,0,1-.14,48.94c-1.35,12.57,29.86,16.14,40,16,36.28-.43,72.57-.18,108.85-.18,17.17,0,34.35.24,51.51-.26,2.66-.08,7.47-3.48,7.51-5.42C479.4,201.65,479.27,179.43,479.25,156.67Z"></path>
  <path class="cls-1" d="M281.48,151.5c-21.06-.4-42.14-.16-63.22-.26-5.1,0-7.76,1.55-7.71,7.23.19,21.4-.1,42.8.34,64.18.05,2.31,3.66,6.49,5.69,6.53,22.88.44,45.77.3,70.38.29a2.35,2.35,0,0,0,2.34-2.33c0-24.49.14-47.68-.34-70.86C288.92,154.56,284.12,151.55,281.48,151.5Z"></path>
  <path class="cls-1" d="M261.47,131.82c3.74.35,5.91.73,8.08.74,27.88,0,55.77.14,83.65,0,16.79-.1,29.45-8.88,34.6-23.4a34,34,0,0,0-10.3-37.79C365.41,61.24,350.07,60.52,335,69.6,320.33,78.48,269.63,117.15,261.47,131.82Z"></path>
  <path class="cls-1" d="M144.58,132.43c18.14.44,36.29.14,54.44.16h37.7l2.09-2.92c-6.89-9.12-57.5-50.3-76.18-61.33-13.37-7.9-28.64-6.45-40,2.85A34.08,34.08,0,0,0,111.83,108C116.54,122.54,128.74,132.06,144.58,132.43Z"></path>
  <path class="cls-1" d="M250,128.14c15.13-24.4,30.06-45.9,37.5-71.3,4.57-15.57-1.89-31.34-15.39-40.73-12.76-8.89-31.05-9-43.92-.22-13.62,9.26-20.26,25-15.8,40.56C219.71,82,234.62,103.55,250,128.14Z"></path>
  <path class="cls-3" d="M54.27,230V418.07h0v63.14h8.09c.57,0,1.15,0,1.79,0l1.43,0H198.29a1.63,1.63,0,0,0,1.65-1.62V163"></path>
  <path class="cls-3" d="M300.13,479.6a1.63,1.63,0,0,0,1.65,1.62h144V230.76"></path>
</svg>
