<?xml version="1.0" encoding="UTF-8"?>
<svg xmlns="http://www.w3.org/2000/svg" id="Layer_1" data-name="Layer 1" viewBox="0 0 500 500">
  <defs>
    <style>.cls-1{fill:#007074;}</style>
  </defs>
  <g id="LSgwmW.tif">
    <path class="cls-1" d="M226.3,173.67V76.1c0-8.12-.27-16.26.11-24.37.87-18.88,13.92-32.28,31.47-32.72,18.24-.45,32.41,13,32.85,32.85.64,29.23.27,58.48.37,87.72,0,2.06.39,4.11,3.44,6.66,4.14-20.34,8.34-40.66,12.39-61,4.84-24.33,19.52-36,40.11-31.76,18.76,3.87,27.31,20.69,22.74,44.64-3.84,20.1-7.63,40.2-9,61.24,1.2-1.9,2.35-3.84,3.62-5.69,10.56-15.42,26.83-20.6,42.22-13.47,14.71,6.81,21.56,22,16.45,39.75-8.82,30.67-18.45,61.12-27.76,91.65-10.89,35.71-21,71.67-32.87,107.07C341.93,440,281.05,481.39,214.79,480.36,151,479.37,96.47,439,78.27,377.25c-4.48-15.21-4.92-32-4.88-48.05,0-17.43,11.93-29.59,27.14-31.23,16.39-1.76,27.51,8.26,34.69,25.49s14.87,35.42,27.19,48.69C189.77,401.6,234.22,402.72,264,378c27.51-22.83,33.8-63.14,14.71-94.16-20.46-33.23-62.79-46.54-97.94-29.89-9.6,4.55-18.5,11.19-26.6,18.17-15.72,13.54-32.22,15.54-45.19,4.18s-13.53-30.42-.38-46.63c23.81-29.39,54.3-47.52,92-53C208.48,175.59,216.49,174.83,226.3,173.67Z"></path>
  </g>
</svg>
