<?xml version="1.0" encoding="UTF-8"?>
<svg xmlns="http://www.w3.org/2000/svg" id="Layer_1" data-name="Layer 1" viewBox="0 0 500 500">
  <defs>
    <style>.cls-1{fill:#007074;}</style>
  </defs>
  <path class="cls-1" d="M7.13,409.3c5.86,31.22,33.5,35.9,49.45,35.92,92.67.08,186.9,0,278,0h27.25a61.09,61.09,0,0,0,8.42-.5c21.94-3.05,37.69-15.08,43.21-33,5.3-17.21.7-32.07-14.45-46.72a69.27,69.27,0,0,0-10-5.43,90.83,90.83,0,0,0-10.29-2.9c-2.65-.44-5.15-.84-7.19-1.16l-3.68-.59c-5.5-.92-6-4.21-5.8-6.09A5.43,5.43,0,0,1,368,344l.32,0A126.15,126.15,0,0,1,381,346.19l2,.34a45.07,45.07,0,0,1,9.69,3,55.08,55.08,0,0,1,6.21,2.62,113,113,0,0,0-.25-36.31c-2.87-17.42-9.35-31.75-18.24-40.38-16.39-15.75-36.44-19.63-58-11.22q-16.64,6.51-25.55,19.16A61.8,61.8,0,0,0,291.19,294a63.79,63.79,0,0,0-4,17.83A5.47,5.47,0,0,1,282.3,317l-4.4.44-1.28-4.27c-1-3.43.66-38,36.58-59.25-18.61-35.64-47.93-58.61-79.21-61.79-24-2.44-58.15,11.51-77.57,30.8,1.73.56,3.39,1.14,5,1.74a63.1,63.1,0,0,1,21.38,11l.35.27,0,0c1.88,1.59,2,2.52,2.18,3.49l.55,3.58-3.13,1.83a5.23,5.23,0,0,1-5.93-.37v0a85.75,85.75,0,0,0-18.94-9.8,57.71,57.71,0,0,0-21.56-1.53C112.55,235.64,96,261,91.73,280.52l.83,0a60.92,60.92,0,0,1,17.57,2.14,68,68,0,0,1,25.49,11.54c4.94,3.67,2,7.92,1.92,8.1-3.46,4.92-9.61.83-12.91-1.37l-1.12-.76a18.37,18.37,0,0,0-1.57-1,60.82,60.82,0,0,0-15.79-6.44,79.36,79.36,0,0,0-12.94-1.46h0a52.84,52.84,0,0,0-17.48,3.4,54.21,54.21,0,0,0-33.13,34.07,55.77,55.77,0,0,0,2.2,39.76c1,2,2.08,4.14,3.4,6.63.37.63.75,1.25,1.15,1.86s.87,1.31,1.28,1.92.7,1,1.08,1.6c.57.85,1.07,1.61,1.4,2.14,1.59,2.6,3,4.85,1.37,7.7l-1.55,2.74-3.15,0c-3.27,0-4.54-2.36-6-5.07-.29-.53-.64-1.09-1-1.64l-.65-1c-.11-.16-.21-.32-.32-.47l0,0c-.26-.37-.5-.72-.72-1.06l-.66-1c-.66-1-1.16-1.81-1.51-2.46a91.51,91.51,0,0,1-8.78-21.08C13.53,370.45,4.23,393.85,7.13,409.3Z"></path>
  <path class="cls-1" d="M352,150.46c20.07,1.26,38.57,12.22,48.52,35.2,9.74,22.52,5.39,43.87-9.91,62.71-4.89,6-10.39,7.78-17.75,5.42-14-4.48-25.05-5.49-41.18-2.58-6.5,1.17-9.76-1.2-13-7.28,0,0-14.73-24.39-25.55-35.92-3.66-3.89-4.12-11.51-2.75-16.42C297.27,166.91,321.6,150.45,352,150.46Z"></path>
  <path class="cls-1" d="M319,66.69A12.82,12.82,0,0,1,321.69,57a5.77,5.77,0,0,1,2.86-2c6.42-1.52,7.58,3.89,8.19,9.22,2.31,20.32,4.88,40.6,7.32,60.91.33,2.72,1.31,5.81.42,8.13a12.06,12.06,0,0,1-.94,1.95c-2.6,4.42-9.15,5-11.78.55a3.61,3.61,0,0,1-.52-1.36c-2.4-14.75-3.82-29.66-5.57-44.51C320.84,82.84,320,75.8,319,66.69Z"></path>
  <path class="cls-1" d="M394.42,153.41a7,7,0,0,1-9.08-.34,3,3,0,0,1-.93-1.49c-.52-2.64-.08-6.26,1.46-8.37,8.88-12.16,18.73-23.61,27.8-35.64q5.76-7.65,12-15c3.41-4,7-10.37,13.07-5.68,4.78,3.72,2.92,8-.22,12-13.69,17.25-27.32,34.55-41.12,51.71A17.2,17.2,0,0,1,394.42,153.41Z"></path>
  <path class="cls-1" d="M287.15,156.76a6.86,6.86,0,0,1-.2,8.87,3,3,0,0,1-1.48,1c-2.58.63-6.27.43-8.31-1-8.68-6.25-16.92-13.1-25.32-19.73q-14-11.1-28-22.21c-3.93-3.12-7.24-7.33-2.5-11.26,2.15-1.78,8.39-1.42,10.89.47,17.82,13.43,35.18,27.47,52.58,41.44A15.57,15.57,0,0,1,287.15,156.76Z"></path>
  <path class="cls-1" d="M490.94,185.45h0c3.82,3.69,3.13,10.3-1.65,12.62a5.69,5.69,0,0,1-1.68.54c-19,2.83-38.08,4.75-57.14,7-5.11.6-10.4.91-11.39-5.71-.95-6.35,4.23-7.45,8.85-8,19.32-2.37,35.64-4.54,58-7.13C486.65,184.69,489.87,184.41,490.94,185.45Z"></path>
  <path class="cls-1" d="M409,261.5a7.31,7.31,0,0,1,9.1-1.35,22.42,22.42,0,0,1,2.93,1.91c13.18,10.31,26.25,20.76,39.38,31.13,4.11,3.24,8.08,7.46,3.43,11.89-1.94,1.85-8.82,1.09-11.64-1-14-10.24-27.48-21.15-40.8-32.24-2.11-1.75-3.39-5.62-3.32-8.47A3.1,3.1,0,0,1,409,261.5Z"></path>
</svg>
