<?xml version="1.0" encoding="UTF-8"?>
<svg xmlns="http://www.w3.org/2000/svg" id="Layer_1" data-name="Layer 1" viewBox="0 0 60 60">
  <defs>
    <style>.cls-1{fill:#007074;}</style>
  </defs>
  <path class="cls-1" d="M29,23.71A17.14,17.14,0,1,0,46.1,40.85,17.13,17.13,0,0,0,29,23.71Zm6,17.41,3.42,4.66a.47.47,0,0,1-.43.74L32.2,45.9a.49.49,0,0,0-.48.27l-2.33,5.29a.46.46,0,0,1-.85,0l-2.33-5.29a.49.49,0,0,0-.48-.27L20,46.52a.46.46,0,0,1-.42-.74L23,41.12a.47.47,0,0,0,0-.55L19.56,35.9a.47.47,0,0,1,.42-.74l5.75.63a.48.48,0,0,0,.48-.28l2.33-5.29a.46.46,0,0,1,.85,0l2.33,5.29a.48.48,0,0,0,.48.28L38,35.16a.47.47,0,0,1,.43.74L35,40.57A.47.47,0,0,0,35,41.12Z"></path>
  <path class="cls-1" d="M22.17,23l1.67-2.46Q29.75,12,35.66,3.38A2.84,2.84,0,0,1,38.23,2c4.07,0,8.14,0,12.21,0,.69,0,1.33.07,1.66.76a1.81,1.81,0,0,1-.26,1.9l-7,10.19c-2,2.94-4.05,5.86-6.05,8.82a.81.81,0,0,1-1.21.35A20.46,20.46,0,0,0,27.12,22.3a40.89,40.89,0,0,0-4.09.77l-.74.12Z"></path>
  <path class="cls-1" d="M20.54,22.87c-1.08-1.54-2.11-3-3.13-4.5C14.59,14.28,7.78,4,7.74,3.6,7.64,2.63,8.59,2,9.57,2H22.43a2.34,2.34,0,0,1,2,1c1.35,1.92,3,5.16,4.37,7.08a.66.66,0,0,1,0,.88L21,22.39A6.42,6.42,0,0,1,20.54,22.87Z"></path>
</svg>
