<?xml version="1.0" encoding="UTF-8"?>
<svg xmlns="http://www.w3.org/2000/svg" id="Layer_1" data-name="Layer 1" viewBox="0 0 60 60">
  <defs>
    <style>.cls-1{fill:#007074;}</style>
  </defs>
  <path class="cls-1" d="M31.9,21.43V9c0-1.32.13-1.46,1.43-1.46,2.71,0,5.43,0,8.14,0a1.92,1.92,0,0,1,1.81.94q4.59,6.66,9.21,13.28a10.53,10.53,0,0,1,2.08,3.92,11.29,11.29,0,0,1,.23,1.84c0,2.93,0,5.86,0,8.79,0,.71.14,1,.94,1,1.64-.05,2.12.48,2.12,2.11,0,1.25,0,2.5,0,3.74A1.6,1.6,0,0,1,56,44.88c-1.69,0-3.37,0-5,0-.54,0-.75.13-.8.71a7.63,7.63,0,0,1-14.76,2A9.59,9.59,0,0,1,35,45.47c0-.45-.22-.6-.66-.6q-6.22,0-12.45,0c-.46,0-.59.19-.64.62A7.64,7.64,0,0,1,6,45.73c-.06-.66-.24-.9-.91-.86-2.74.17-3.06-.43-3-3,0-.92,0-1.85,0-2.77,0-1.31.57-1.87,1.88-1.87H28.31a4.65,4.65,0,0,0,1.45-.16A3,3,0,0,0,31.9,34Zm4.61-2.89c0,1.74,0,3.47,0,5.21,0,1.09.19,1.28,1.28,1.28q4.73,0,9.44,0c.36,0,1-.17,1-.38A1.68,1.68,0,0,0,48,23.42c-2.12-3.11-4.28-6.19-6.42-9.28-1.44-2.07-1.44-2.07-3.9-2-1,0-1.18.21-1.18,1.22C36.5,15.07,36.51,16.81,36.51,18.54ZM13.64,40.31a4.55,4.55,0,1,0,4.53,4.57A4.59,4.59,0,0,0,13.64,40.31ZM38,44.82a4.55,4.55,0,1,0,4.59-4.51A4.6,4.6,0,0,0,38,44.82Z"></path>
  <path class="cls-1" d="M15.45,34.21H4.13c-1.41,0-2-.54-2-2V9.47c0-1.42.53-2,2-2H26.91c1.43,0,2,.54,2,2q0,11.38,0,22.78c0,1.41-.55,2-1.95,2Z"></path>
</svg>
