<svg width="16" height="16" viewBox="0 0 16 16" fill="none" xmlns="http://www.w3.org/2000/svg">
<path d="M12.9015 4.95529C12.7793 4.75665 12.607 4.59223 12.4011 4.47789C12.1952 4.36355 11.9628 4.30315 11.7262 4.30251H10.0571V2.95797C10.0571 2.77968 9.9849 2.60868 9.8563 2.48261C9.7277 2.35653 9.55329 2.28571 9.37143 2.28571H2.51429C1.75794 2.28571 1.14286 2.88873 1.14286 3.63024V10.3529C1.14286 10.8544 1.42811 11.2881 1.84434 11.5186C1.92869 12.7415 2.96 13.7143 4.22857 13.7143C5.43474 13.7143 6.4256 12.8343 6.5936 11.6975H8.72068C8.88868 12.8343 9.87954 13.7143 11.0857 13.7143C12.2919 13.7143 13.2827 12.8343 13.4507 11.6975H13.4857C14.2421 11.6975 14.8571 11.0944 14.8571 10.3529V8.33613C14.8573 8.21411 14.8234 8.09439 14.7591 7.98991L12.9015 4.95529ZM10.0571 5.64705H11.7262L12.9605 7.66386H10.0571V5.64705ZM4.22857 12.3697C3.66148 12.3697 3.2 11.9173 3.2 11.3613C3.2 10.8054 3.66148 10.3529 4.22857 10.3529C4.79566 10.3529 5.25714 10.8054 5.25714 11.3613C5.25714 11.9173 4.79566 12.3697 4.22857 12.3697ZM11.0857 12.3697C10.5186 12.3697 10.0571 11.9173 10.0571 11.3613C10.0571 10.8054 10.5186 10.3529 11.0857 10.3529C11.6528 10.3529 12.1143 10.8054 12.1143 11.3613C12.1143 11.9173 11.6528 12.3697 11.0857 12.3697Z" fill="#006F74"/>
</svg>
