<?xml version="1.0" encoding="UTF-8"?>
<svg xmlns="http://www.w3.org/2000/svg" width="164" height="164" viewBox="0 0 164 164" fill="none">
  <g clip-path="url(#clip0)">
    <path d="M82 164C127.287 164 164 127.287 164 82C164 36.7127 127.287 0 82 0C36.7127 0 0 36.7127 0 82C0 127.287 36.7127 164 82 164Z" fill="white"></path>
    <path d="M137.652 137.648C168.388 106.912 168.388 57.0801 137.652 26.3446C106.917 -4.3909 57.0845 -4.3909 26.349 26.3446C-4.38646 57.0801 -4.38646 106.912 26.349 137.648C57.0845 168.383 106.917 168.383 137.652 137.648Z" fill="#9BC1F9"></path>
    <path d="M108.918 8.05713C131.222 21.9374 146.055 46.6949 146.055 74.895C146.055 118.367 110.823 153.599 67.3506 153.599C57.9018 153.599 48.8192 151.914 40.3958 148.874C52.4449 156.382 66.6914 160.74 81.9268 160.74C125.399 160.74 160.631 125.509 160.631 82.0366C160.667 48.0134 139.133 19.0442 108.918 8.05713Z" fill="#334A9C"></path>
    <path d="M6.59229 59.4763C9.8884 65.8854 19.9965 71.9283 23.8053 71.9283C28.017 71.9283 32.009 78.3374 32.009 78.3374H33.657C35.3051 78.3374 33.1443 84.7465 32.2654 89.7273C31.3864 94.7081 36.9532 96.4294 39.9563 99.4325C42.9594 102.436 40.2859 115.474 42.7763 118.001C45.2667 120.491 51.7857 125.106 52.628 124.263C53.4704 123.421 49.808 115.803 52.2618 111.994C54.6789 108.149 56.3636 103.937 59.0371 99.2128C61.7106 94.4883 67.7535 95.1109 68.3761 88.5919C68.9987 82.073 60.0626 80.901 54.8254 80.901C49.5883 80.901 49.0755 76.2865 44.461 74.4919C39.8464 72.6973 34.7558 76.9091 33.5106 76.9091C32.2654 76.9091 29.5186 70.7563 27.0648 69.4745C24.6477 68.1927 20.3993 68.9618 19.3739 65.629C18.3484 62.2963 25.3801 61.93 31.3864 61.93C37.3926 61.93 37.7955 60.5384 37.7955 56.9493C37.7955 53.3601 44.5709 51.4557 50.2109 45.8157C55.8509 40.1757 49.6981 34.1694 46.2555 35.1949C42.8129 36.2204 34.0965 38.0149 35.6347 34.4258C37.1729 30.8367 48.6727 31.2396 48.6727 31.2396C48.6727 31.2396 48.7093 31.2396 52.1153 29.445C55.5579 27.6505 42.8862 26.2954 41.8973 26.2954C40.8719 26.2954 43.8018 22.8162 42.4101 21.3878C41.0184 19.9961 38.9675 24.5741 36.5137 24.5741C34.0965 24.5741 30.3609 25.453 27.4311 26.2221C27.2113 26.2954 26.9183 26.2588 26.5887 26.1489C17.323 35.3048 10.4011 46.7313 6.59229 59.4763Z" fill="#334A9C"></path>
    <path d="M36.3305 22.4138C40.0295 20.5094 36.9531 18.4585 36.9531 18.4585C36.9531 18.4585 36.4404 18.4219 35.6347 18.4219C33.6204 19.8868 31.6427 21.4616 29.7749 23.1463C32.0456 23.5492 34.4261 23.366 36.3305 22.4138Z" fill="#334A9C"></path>
    <path d="M49.0023 20.2163C49.0023 20.2163 43.5088 24.1716 44.9005 24.1716C46.2922 24.1716 50.4672 25.014 53.1041 27.6143C55.741 30.2511 55.7776 29.9215 55.0085 32.7415C54.2394 35.5615 66.3252 31.3865 64.6039 29.6652C62.8826 27.9439 62.8826 27.9439 62.8826 27.9439C62.8826 27.9439 60.6486 26.2958 59.9893 23.3293C59.3667 20.3628 49.0023 20.2163 49.0023 20.2163Z" fill="#334A9C"></path>
    <path d="M69.072 14.1001C69.072 14.1001 58.5977 14.6128 58.5977 17.03C58.5977 19.4471 58.5977 19.4471 58.5977 19.4471C58.5977 19.4471 63.7982 19.4471 64.787 22.2671C65.7759 25.0871 65.7759 25.0871 65.7759 25.0871C65.7759 25.0871 69.0354 28.5298 68.3761 33.1443C67.7169 37.7589 67.8268 40.0662 71.6722 40.0662C75.5177 40.0662 79.3632 30.5807 84.1975 29.3355C89.0684 28.0536 90.0939 25.8929 90.863 20.2528C91.5954 14.6128 69.072 14.1001 69.072 14.1001Z" fill="#334A9C"></path>
    <path d="M129.061 58.8906C129.061 58.8906 96.5029 72.1483 92.7307 75.9205C88.9585 79.6928 92.1081 83.6115 92.1081 88.3359C92.1081 93.0603 104.89 91.6686 106.941 89.6177C108.992 87.5668 110.64 91.7785 112.581 98.8468C114.485 105.879 107.966 118.953 112.068 119.722C116.17 120.491 131.112 106.794 134.591 96.9424C138.071 87.0907 138.693 77.3855 132.431 72.5146C126.095 67.607 129.061 58.8906 129.061 58.8906Z" fill="#334A9C"></path>
    <path d="M136.496 25.27C131.295 25.9292 126.058 26.9913 125.728 28.5661C125.106 31.7524 125.106 31.7524 125.106 31.7524C125.106 31.7524 117.305 31.7524 112.947 31.7524C108.589 31.7524 105.256 35.7077 105.256 38.1615C105.256 40.5786 112.361 40.6519 110.64 42.3732C108.918 44.0945 101.996 43.8381 100.275 45.5594L98.5539 47.2807C98.5539 47.2807 94.3788 54.2392 91.7053 55.7774C89.0318 57.3156 88.1162 56.4 89.0318 57.3156C89.9107 58.1945 97.0889 59.3665 100.019 56.4366C100.019 56.4366 105.219 53.1039 106.721 52.8475C108.222 52.5911 108.406 53.7265 109.358 54.0195C110.31 54.3491 112.251 54.8984 112.251 55.4478C112.251 55.9971 111.848 56.986 112.141 56.986C112.434 56.986 113.533 55.228 113.533 54.9351C113.533 54.6421 112.617 54.3125 112.617 54.3125L113.862 54.4223V54.2026C113.862 54.2026 112.141 53.9096 111.702 53.5067C111.299 53.1039 111.116 52.4447 110.749 52.0784C110.383 51.7122 111.372 50.1007 111.812 50.1007C112.214 50.1007 114.668 52.8475 115.767 52.8475H116.902C116.902 52.8475 118.843 53.287 120.528 54.3857C122.176 55.4478 122.176 55.4844 122.176 55.4844C122.176 55.4844 125.875 58.4509 125.875 59.6595C125.875 60.8314 127.706 69.3647 129.94 68.8886C132.138 68.4125 137.192 64.3473 140.085 62.8091C142.978 61.2709 143.93 61.0146 150.303 61.7104C152.464 61.9301 155.32 62.5161 158.323 62.9556C154.698 48.3062 147.007 35.3415 136.496 25.27Z" fill="#334A9C"></path>
  </g>
  <defs>
    <clipPath id="clip0">
      <rect width="164" height="164" fill="white"></rect>
    </clipPath>
  </defs>
</svg>
