<svg width="20" height="46" viewBox="0 0 20 46" fill="none" xmlns="http://www.w3.org/2000/svg">
<path d="M18.098 33.4517H1.80199C1.21999 33.4517 0.754395 32.9832 0.754395 32.3976V30.5238C0.754395 29.9382 1.21999 29.4697 1.80199 29.4697H18.0813C18.6633 29.4697 19.1289 29.9382 19.1289 30.5238V32.3976C19.1456 32.9665 18.68 33.4517 18.098 33.4517ZM1.91839 32.2805H17.9816V30.6409H1.91839V32.2805Z" fill="#006F74"/>
<path d="M15.9197 46H3.99702C3.44828 46 2.98268 45.565 2.94943 45.0129L2.118 33.4182C2.10137 33.1171 2.20114 32.8326 2.40068 32.6151C2.60023 32.3976 2.88291 32.2805 3.1656 32.2805H16.7678C17.0671 32.2805 17.3331 32.3976 17.5327 32.6151C17.7322 32.8326 17.832 33.1171 17.8153 33.4182L16.9839 45.0129C16.9174 45.565 16.4684 46 15.9197 46ZM4.0968 44.8288H15.8199L16.6347 33.4517H3.282L4.0968 44.8288Z" fill="#006F74"/>
<path d="M9.94992 30.6241C9.63398 30.6241 9.36792 30.1724 9.36792 29.6203V4.72445C9.36792 4.17232 9.63398 3.72058 9.94992 3.72058C10.2659 3.72058 10.5319 4.17232 10.5319 4.72445V29.637C10.5319 30.1891 10.2659 30.6241 9.94992 30.6241Z" fill="#006F74"/>
<path d="M4.42943 26.1235C3.4816 26.1235 2.51715 25.7554 1.78549 25.036C1.22012 24.4838 0.455207 22.9948 0.00623571 19.1132C-0.0270214 18.7953 0.0727499 18.4774 0.30555 18.2431C0.538349 18.0089 0.854292 17.9085 1.17023 17.942C5.02806 18.3603 6.508 19.1132 7.07337 19.682C7.7884 20.3847 8.18748 21.3384 8.18748 22.3423C8.18748 23.3461 7.80503 24.2998 7.10663 25.0192C6.37497 25.7387 5.41051 26.1235 4.42943 26.1235ZM1.18686 19.0964C1.50281 21.673 2.03492 23.6138 2.61692 24.1827C3.63126 25.1865 5.27749 25.1865 6.2752 24.1659C6.75743 23.664 7.02348 23.0115 7.02348 22.3255C7.02348 21.6228 6.7408 20.9703 6.25857 20.4851C5.6932 19.933 3.74766 19.3976 1.18686 19.0964Z" fill="#006F74"/>
<path d="M9.95024 28.4324C9.80059 28.4324 9.65093 28.3822 9.53453 28.2651L4.52934 23.2792C4.29654 23.045 4.29654 22.6769 4.52934 22.4594C4.76214 22.2251 5.12796 22.2251 5.34413 22.4594L10.3493 27.4452C10.5821 27.6795 10.5821 28.0476 10.3493 28.2651C10.2496 28.3655 10.0999 28.4324 9.95024 28.4324Z" fill="#006F74"/>
<path d="M4.42943 14.0938C3.4816 14.0938 2.51715 13.7258 1.78549 13.0063C1.22012 12.4542 0.455207 10.9651 0.00623571 7.08352C-0.0270214 6.76563 0.0727499 6.44774 0.30555 6.2135C0.538349 5.97927 0.854292 5.87888 1.17023 5.91234C5.02806 6.33062 6.508 7.08352 7.07337 7.65237C7.7884 8.35508 8.18748 9.30875 8.18748 10.3126C8.18748 11.3165 7.80503 12.2701 7.10663 12.9896C6.37497 13.709 5.41051 14.0938 4.42943 14.0938ZM1.18686 7.06679C1.50281 9.64337 2.03492 11.5842 2.61692 12.153C3.63126 13.1569 5.27749 13.1569 6.2752 12.1363C6.75743 11.6344 7.02348 10.9819 7.02348 10.2959C7.02348 9.59318 6.7408 8.94067 6.25857 8.45546C5.6932 7.90334 3.74766 7.36794 1.18686 7.06679Z" fill="#006F74"/>
<path d="M9.95024 16.4027C9.80059 16.4027 9.65093 16.3525 9.53453 16.2354L4.52934 11.2496C4.29654 11.0153 4.29654 10.6472 4.52934 10.4297C4.76214 10.1955 5.12796 10.1955 5.34413 10.4297L10.3493 15.4156C10.5821 15.6498 10.5821 16.0179 10.3493 16.2354C10.2496 16.3358 10.0999 16.4027 9.95024 16.4027Z" fill="#006F74"/>
<path d="M15.6038 20.5186C14.6061 20.5186 13.6749 20.1337 12.9598 19.431C11.4965 17.9587 11.4799 15.5662 12.9432 14.0938C13.492 13.525 14.9719 12.7553 18.8297 12.3036C19.1457 12.2701 19.4616 12.3705 19.6944 12.6048C19.9272 12.839 20.027 13.1569 19.9937 13.4748C19.578 17.3564 18.8297 18.8455 18.2643 19.4143C17.5659 20.117 16.6181 20.5186 15.6038 20.5186C15.6204 20.5186 15.6038 20.5186 15.6038 20.5186ZM18.8297 13.4748C16.2689 13.7927 14.34 14.3281 13.7746 14.9137C12.7769 15.9342 12.7769 17.5906 13.7913 18.5945C14.2901 19.0797 14.922 19.3474 15.6204 19.3474C16.3188 19.3474 16.9673 19.063 17.4495 18.5778C17.9983 17.9922 18.5304 16.0514 18.8297 13.4748Z" fill="#006F74"/>
<path d="M10.133 22.8776C9.98338 22.8776 9.83372 22.8275 9.71732 22.7103C9.48452 22.4761 9.48452 22.108 9.71732 21.8905L14.6726 16.8545C14.9054 16.6202 15.2713 16.6202 15.4874 16.8545C15.7202 17.0887 15.7202 17.4568 15.4874 17.6743L10.5488 22.6936C10.4324 22.8107 10.2827 22.8776 10.133 22.8776Z" fill="#006F74"/>
<path d="M15.6039 8.22123C14.6062 8.22123 13.675 7.83642 12.9599 7.13371C11.4966 5.66138 11.48 3.26883 12.9433 1.7965C13.492 1.22764 14.972 0.458013 18.8298 0.00627415C19.1457 -0.027188 19.4617 0.0731984 19.6945 0.307433C19.9273 0.541668 20.0271 0.859559 19.9938 1.17745C19.5781 5.05906 18.8298 6.54812 18.2644 7.11698C17.566 7.81968 16.6182 8.22123 15.6039 8.22123C15.6205 8.22123 15.6039 8.22123 15.6039 8.22123ZM18.8298 1.17745C16.269 1.49534 14.3401 2.03073 13.7747 2.61632C12.777 3.63692 12.777 5.29329 13.7914 6.29716C14.2902 6.78236 14.9221 7.05006 15.6205 7.05006C16.3189 7.05006 16.9674 6.76563 17.4496 6.28043C17.9984 5.69484 18.5305 3.75403 18.8298 1.17745Z" fill="#006F74"/>
<path d="M10.133 10.5803C9.98338 10.5803 9.83372 10.5301 9.71732 10.413C9.48452 10.1788 9.48452 9.81069 9.71732 9.59318L14.6726 4.55713C14.9054 4.3229 15.2713 4.3229 15.4874 4.55713C15.7202 4.79137 15.7202 5.15945 15.4874 5.37695L10.5488 10.3963C10.4324 10.5134 10.2827 10.5803 10.133 10.5803Z" fill="#006F74"/>
</svg>
