<?xml version="1.0" encoding="UTF-8"?>
<svg xmlns="http://www.w3.org/2000/svg" xmlns:xlink="http://www.w3.org/1999/xlink" width="60pt" height="60pt" viewBox="0 0 60 60" version="1.1">
  <g id="surface1">
    <path style=" stroke:none;fill-rule:nonzero;fill:rgb(0%,43.921569%,45.490196%);fill-opacity:1;" d="M 57.421875 23 C 55.671875 26.679688 54.601562 25.519531 54.601562 25.519531 L 54.058594 29.230469 C 54.058594 29.230469 54.160156 31.070312 56.058594 29.328125 C 57.960938 27.589844 59.171875 19.320312 57.421875 23 Z M 57.421875 23 "></path>
    <path style=" stroke:none;fill-rule:nonzero;fill:rgb(0%,43.921569%,45.490196%);fill-opacity:1;" d="M 49.078125 23.511719 C 49.078125 23.511719 52.871094 32.910156 54.210938 32.25 C 55.550781 31.589844 57.210938 29.601562 55.210938 25.761719 C 53.210938 21.921875 49.078125 23.511719 49.078125 23.511719 Z M 49.078125 23.511719 "></path>
    <path style=" stroke:none;fill-rule:nonzero;fill:rgb(0%,43.921569%,45.490196%);fill-opacity:1;" d="M 14.539062 49.769531 L 16 57.621094 C 17.898438 58.71875 20.175781 58.957031 22.261719 58.28125 C 26.101562 57.21875 23.949219 53.390625 23.949219 53.390625 Z M 14.539062 49.769531 "></path>
    <path style=" stroke:none;fill-rule:nonzero;fill:rgb(0%,43.921569%,45.490196%);fill-opacity:1;" d="M 39.589844 56.519531 C 38.785156 56.519531 37.984375 56.394531 37.21875 56.148438 L 36.398438 52 L 42.621094 50.199219 C 43.179688 51.851562 43.921875 55.351562 42.058594 56.050781 C 41.273438 56.351562 40.433594 56.503906 39.589844 56.5 Z M 39.589844 56.519531 "></path>
    <path style=" stroke:none;fill-rule:nonzero;fill:rgb(100%,100%,100%);fill-opacity:1;" d="M 42.378906 50.679688 C 42.859375 52.28125 43.378906 55.171875 41.929688 55.679688 C 41.183594 55.960938 40.390625 56.105469 39.589844 56.101562 C 38.914062 56.097656 38.238281 56 37.589844 55.808594 L 36.878906 52.230469 L 42.421875 50.628906 Z M 42.859375 49.769531 L 35.96875 51.769531 L 36.898438 56.429688 C 37.761719 56.746094 38.671875 56.90625 39.589844 56.898438 C 40.480469 56.902344 41.367188 56.742188 42.199219 56.429688 C 44.980469 55.371094 42.859375 49.78125 42.859375 49.78125 Z M 42.859375 49.769531 "></path>
    <path style=" stroke:none;fill-rule:nonzero;fill:rgb(0%,43.921569%,45.490196%);fill-opacity:1;" d="M 14.070312 9.898438 C 12.609375 10.289062 14.730469 20.121094 14.070312 21.691406 C 13.410156 23.261719 20.160156 15.390625 20.160156 15.390625 C 20.160156 15.390625 15.53125 9.5 14.070312 9.898438 Z M 14.070312 9.898438 "></path>
    <path style=" stroke:none;fill-rule:nonzero;fill:rgb(0%,43.921569%,45.490196%);fill-opacity:1;" d="M 14.800781 11.878906 C 14.53125 11.75 15.210938 17.03125 15.058594 18.808594 C 14.910156 20.589844 18.609375 17 18.609375 17 C 18.609375 17 15.058594 12 14.800781 11.878906 Z M 14.800781 11.878906 "></path>
    <path style=" stroke:none;fill-rule:nonzero;fill:rgb(0%,43.921569%,45.490196%);fill-opacity:1;" d="M 43.25 51.050781 L 42.898438 51.191406 C 42.789062 51.242188 42.675781 51.285156 42.558594 51.320312 C 42.070312 51.511719 41.558594 51.691406 41.058594 51.851562 L 41.148438 52.199219 L 42.058594 55.660156 L 42.160156 56.03125 L 42.25 56.390625 L 42.328125 56.691406 C 44.875 57.792969 47.820312 57.40625 50 55.691406 C 50.25 53.550781 50.488281 49.421875 50.621094 46.691406 C 50.621094 46.488281 50.621094 46.300781 50.621094 46.121094 Z M 43.25 51.050781 "></path>
    <path style=" stroke:none;fill-rule:nonzero;fill:rgb(0%,43.921569%,45.490196%);fill-opacity:1;" d="M 50.640625 46.121094 C 50.777344 45.996094 50.90625 45.859375 51.03125 45.71875 C 54.039062 42.316406 55.488281 37.808594 55.03125 33.289062 C 55.03125 32.800781 54.941406 32.289062 54.878906 31.851562 C 54.820312 31.410156 54.679688 30.621094 54.539062 30.03125 C 54.398438 29.441406 54.320312 29.148438 54.171875 28.71875 C 53.582031 26.757812 52.683594 24.898438 51.511719 23.21875 C 49.082031 19.734375 45.703125 17.015625 41.78125 15.390625 C 38.609375 14.050781 35.21875 13.316406 31.78125 13.230469 L 30.78125 13.230469 C 29.949219 13.230469 29.117188 13.277344 28.289062 13.371094 L 27.578125 13.371094 C 26.925781 13.449219 26.273438 13.566406 25.628906 13.71875 L 25.070312 13.851562 L 24.488281 14.011719 C 22.816406 14.496094 21.199219 15.164062 19.671875 16 C 19.238281 16.230469 18.808594 16.46875 18.398438 16.71875 C 17.234375 17.386719 16.121094 18.152344 15.078125 19 C 14.769531 19.261719 14.46875 19.53125 14.179688 19.820312 C 11.34375 22.429688 9.25 25.746094 8.109375 29.429688 C 8.058594 29.554688 8.023438 29.6875 8 29.820312 C 7.953125 29.945312 7.917969 30.078125 7.890625 30.210938 C 7.75 30.714844 7.640625 31.222656 7.558594 31.738281 C 7.519531 31.9375 7.492188 32.136719 7.480469 32.339844 C 7.4375 32.558594 7.410156 32.777344 7.398438 33 C 7.332031 33.597656 7.296875 34.199219 7.300781 34.800781 C 7.277344 37.136719 7.6875 39.460938 8.511719 41.648438 C 8.589844 41.859375 8.679688 42.070312 8.769531 42.28125 C 8.859375 42.488281 8.941406 42.660156 9.03125 42.851562 C 9.5625 43.972656 10.222656 45.03125 11 46 C 11.082031 46.113281 11.171875 46.21875 11.269531 46.320312 L 11.539062 46.648438 C 12.941406 48.210938 14.605469 49.515625 16.460938 50.5 C 18.113281 51.371094 19.867188 52.042969 21.679688 52.5 C 21.820312 52.535156 21.921875 52.648438 21.949219 52.789062 C 22.21875 54.546875 22.589844 56.289062 23.070312 58 C 23.144531 58.234375 23.230469 58.464844 23.328125 58.691406 C 24.371094 58.8125 25.421875 58.878906 26.46875 58.878906 C 27.789062 58.933594 29.105469 58.765625 30.371094 58.390625 L 31.558594 53.78125 C 31.597656 53.621094 31.738281 53.507812 31.898438 53.5 C 33.347656 53.414062 34.789062 53.246094 36.21875 53 L 36.578125 52.949219 L 36.960938 52.878906 C 38.347656 52.636719 39.71875 52.304688 41.058594 51.878906 C 41.570312 51.71875 42.058594 51.539062 42.558594 51.351562 C 42.675781 51.316406 42.789062 51.273438 42.898438 51.21875 L 43.25 51.078125 Z M 50.640625 46.121094 "></path>
    <path style=" stroke:none;fill-rule:nonzero;fill:rgb(100%,100%,100%);fill-opacity:1;" d="M 30.75 13.570312 C 43.75 13.570312 53.75 21.871094 54.621094 33.308594 C 55.085938 37.722656 53.683594 42.125 50.761719 45.460938 C 46.839844 49.890625 39.960938 52.671875 31.890625 53.078125 C 31.566406 53.09375 31.285156 53.316406 31.199219 53.628906 L 30.058594 58.050781 C 28.886719 58.355469 27.679688 58.492188 26.46875 58.460938 C 25.507812 58.457031 24.546875 58.40625 23.589844 58.300781 C 22.992188 56.492188 22.554688 54.632812 22.28125 52.75 C 22.226562 52.46875 22.015625 52.238281 21.738281 52.160156 C 12.800781 49.828125 7.671875 43.511719 7.671875 34.839844 C 7.671875 23.511719 18.460938 13.570312 30.75 13.570312 Z M 30.75 12.828125 C 17.75 12.828125 6.929688 23.339844 6.929688 34.828125 C 6.929688 43.828125 12.390625 50.480469 21.550781 52.828125 C 21.832031 54.9375 22.351562 57.007812 23.101562 59 C 24.21875 59.132812 25.34375 59.203125 26.46875 59.210938 C 27.898438 59.292969 29.328125 59.09375 30.679688 58.628906 L 31.921875 53.828125 C 45.050781 53.160156 56.308594 46.371094 55.359375 33.261719 C 54.539062 21.789062 44.578125 12.839844 30.75 12.839844 Z M 30.75 12.828125 "></path>
    <path style=" stroke:none;fill-rule:nonzero;fill:rgb(100%,100%,100%);fill-opacity:1;" d="M 29.519531 14.789062 C 29.644531 15.367188 29.742188 15.953125 29.808594 16.539062 C 34.816406 16.15625 39.839844 17.070312 44.390625 19.199219 C 44.355469 18.660156 44.144531 18.148438 43.789062 17.738281 C 39.453125 15.300781 34.46875 14.269531 29.519531 14.789062 Z M 29.519531 14.789062 "></path>
    <path style=" stroke:none;fill-rule:nonzero;fill:rgb(0%,43.921569%,45.490196%);fill-opacity:1;" d="M 9.058594 46.5 C 8.207031 46.492188 7.355469 46.445312 6.511719 46.351562 L 5.378906 30.351562 C 7.027344 29.996094 8.699219 29.773438 10.378906 29.691406 C 10.71875 29.664062 11.058594 29.707031 11.378906 29.808594 C 12.378906 30.289062 14.730469 32.898438 15.058594 37.53125 C 15.359375 41.808594 14.46875 44.789062 12.539062 45.929688 C 11.445312 46.402344 10.25 46.601562 9.058594 46.5 Z M 9.058594 46.5 "></path>
    <path style=" stroke:none;fill-rule:nonzero;fill:rgb(100%,100%,100%);fill-opacity:1;" d="M 10.371094 30 C 10.644531 29.976562 10.917969 30.007812 11.179688 30.089844 C 12.179688 30.539062 14.328125 33.03125 14.648438 37.5 C 14.941406 41.570312 14.089844 44.5 12.308594 45.5 C 11.292969 45.960938 10.171875 46.15625 9.058594 46.058594 C 8.324219 46.078125 7.589844 46.058594 6.859375 46 L 5.769531 30.609375 C 7.285156 30.289062 8.824219 30.09375 10.371094 30.019531 Z M 10.371094 29.261719 C 8.5625 29.367188 6.769531 29.613281 5 30 L 6.171875 46.679688 C 7.128906 46.804688 8.09375 46.867188 9.058594 46.871094 C 10.304688 46.945312 11.550781 46.71875 12.691406 46.210938 C 14.601562 45.078125 15.691406 42.210938 15.390625 37.46875 C 15.089844 32.730469 12.699219 30 11.5 29.46875 C 11.136719 29.347656 10.753906 29.296875 10.371094 29.320312 Z M 10.371094 29.261719 "></path>
    <path style=" stroke:none;fill-rule:nonzero;fill:rgb(0%,43.921569%,45.490196%);fill-opacity:1;" d="M 6 46.308594 C 4.148438 46.308594 2.410156 42.851562 2.101562 38.589844 C 1.789062 34.328125 3.101562 30.511719 4.96875 30.378906 L 5 30.378906 C 7 30.378906 8.691406 33.839844 9 38.101562 C 9.308594 42.359375 8 46.171875 6.140625 46.308594 Z M 6 46.308594 "></path>
    <path style=" stroke:none;fill-rule:nonzero;fill:rgb(100%,100%,100%);fill-opacity:1;" d="M 5.109375 30.75 C 6.53125 30.75 8.320312 33.75 8.628906 38.128906 C 8.8125 40.039062 8.597656 41.96875 8 43.789062 C 7.511719 45.101562 6.828125 45.890625 6.128906 45.941406 L 6 45.941406 C 4.578125 45.941406 2.78125 42.941406 2.46875 38.558594 C 2.160156 34.179688 3.589844 30.851562 5 30.75 Z M 5.109375 30.011719 L 5 30.011719 C 2.898438 30.160156 1.46875 34.011719 1.789062 38.609375 C 2.109375 43.210938 4 46.679688 6 46.679688 L 6.128906 46.679688 C 8.21875 46.53125 9.660156 42.679688 9.328125 38.070312 C 9 33.460938 7.160156 30 5.109375 30 Z M 5.109375 30.011719 "></path>
    <path style=" stroke:none;fill-rule:nonzero;fill:rgb(100%,100%,100%);fill-opacity:1;" d="M 4.058594 35.148438 L 3.828125 35.148438 C 3.457031 35.191406 3.1875 35.527344 3.230469 35.898438 L 3.550781 40.769531 C 3.5625 41.140625 3.867188 41.4375 4.238281 41.429688 L 4.46875 41.429688 C 4.839844 41.382812 5.105469 41.050781 5.070312 40.679688 L 4.75 35.800781 C 4.746094 35.621094 4.671875 35.453125 4.542969 35.328125 C 4.414062 35.207031 4.238281 35.140625 4.058594 35.148438 Z M 4.058594 35.148438 "></path>
    <path style=" stroke:none;fill-rule:nonzero;fill:rgb(100%,100%,100%);fill-opacity:1;" d="M 6.5 35.25 L 6.28125 35.25 C 5.90625 35.292969 5.636719 35.625 5.671875 36 L 6 40.890625 C 6.003906 41.070312 6.082031 41.238281 6.214844 41.363281 C 6.34375 41.484375 6.519531 41.546875 6.699219 41.539062 L 6.929688 41.539062 C 7.300781 41.488281 7.566406 41.152344 7.53125 40.78125 L 7.199219 35.898438 C 7.195312 35.71875 7.117188 35.550781 6.984375 35.429688 C 6.855469 35.304688 6.679688 35.242188 6.5 35.25 Z M 6.5 35.25 "></path>
    <path style=" stroke:none;fill-rule:nonzero;fill:rgb(0%,43.921569%,45.490196%);fill-opacity:1;" d="M 28.558594 26.628906 C 29.238281 23.910156 28.699219 12.921875 27.238281 12.210938 C 25.78125 11.5 21.558594 19.398438 21 21.148438 Z M 28.558594 26.628906 "></path>
    <path style=" stroke:none;fill-rule:nonzero;fill:rgb(100%,100%,100%);fill-opacity:1;" d="M 28.558594 27 L 28.46875 27 C 28.375 26.976562 28.292969 26.914062 28.242188 26.832031 C 28.191406 26.746094 28.175781 26.644531 28.199219 26.550781 C 28.980469 23.410156 28.148438 13.078125 27.078125 12.550781 C 27.078125 12.550781 26.980469 12.550781 26.890625 12.550781 C 25.359375 13.179688 21.890625 19.550781 21.300781 21.238281 C 21.230469 21.429688 21.023438 21.53125 20.828125 21.46875 C 20.636719 21.402344 20.535156 21.191406 20.601562 21 C 21.070312 19.660156 24.601562 12.671875 26.601562 11.859375 C 26.851562 11.742188 27.140625 11.742188 27.390625 11.859375 C 29.230469 12.75 29.480469 24.410156 28.910156 26.699219 C 28.882812 26.871094 28.734375 26.996094 28.558594 27 Z M 28.558594 27 "></path>
    <path style=" stroke:none;fill-rule:nonzero;fill:rgb(0%,43.921569%,45.490196%);fill-opacity:1;" d="M 40.210938 1.121094 C 36.101562 -0.0898438 31.789062 2.261719 30.578125 6.371094 C 29.363281 10.476562 31.710938 14.792969 35.820312 16.007812 C 39.925781 17.21875 44.242188 14.878906 45.460938 10.769531 C 46.675781 6.65625 44.324219 2.335938 40.210938 1.121094 Z M 40.210938 1.121094 "></path>
    <path style=" stroke:none;fill-rule:nonzero;fill:rgb(100%,100%,100%);fill-opacity:1;" d="M 38.660156 8.109375 C 38.949219 8.171875 39 8.238281 38.921875 8.53125 L 38.871094 8.71875 C 38.871094 9.011719 38.75 9.050781 38.46875 8.980469 L 38.101562 8.898438 C 38.105469 8.964844 38.105469 9.035156 38.101562 9.101562 C 38.027344 9.402344 37.816406 9.65625 37.53125 9.78125 L 37.671875 9.78125 C 37.800781 9.757812 37.929688 9.757812 38.058594 9.78125 C 38.199219 9.808594 38.335938 9.859375 38.460938 9.929688 C 38.554688 9.980469 38.65625 10.015625 38.761719 10.039062 C 38.980469 10.09375 39.210938 10.042969 39.390625 9.910156 C 39.410156 9.898438 39.4375 9.898438 39.460938 9.910156 C 39.492188 9.921875 39.519531 9.949219 39.53125 9.980469 L 39.730469 10.710938 L 39.730469 10.800781 C 39.742188 10.847656 39.742188 10.894531 39.730469 10.941406 C 39.730469 11.03125 39.648438 11.078125 39.46875 11.148438 C 39.117188 11.304688 38.722656 11.339844 38.351562 11.25 C 38.027344 11.164062 37.71875 11.035156 37.429688 10.871094 C 37.242188 10.769531 37.046875 10.691406 36.839844 10.640625 C 36.621094 10.574219 36.386719 10.574219 36.171875 10.640625 L 36.050781 10.640625 C 35.960938 10.640625 35.941406 10.578125 35.851562 10.390625 L 35.730469 10.078125 C 35.671875 9.910156 35.660156 9.890625 35.730469 9.839844 C 35.800781 9.789062 35.730469 9.71875 35.960938 9.640625 C 36.304688 9.507812 36.570312 9.222656 36.679688 8.871094 C 36.695312 8.753906 36.695312 8.636719 36.679688 8.519531 L 36.300781 8.441406 C 36.011719 8.378906 35.96875 8.308594 36.039062 8.019531 L 36.089844 7.828125 C 36.089844 7.539062 36.210938 7.5 36.5 7.570312 L 36.558594 7.570312 C 36.4375 7.300781 36.410156 6.996094 36.480469 6.710938 C 36.679688 5.828125 37.570312 5.429688 38.738281 5.710938 C 39.378906 5.785156 39.929688 6.199219 40.179688 6.789062 C 40.277344 7.089844 40.304688 7.40625 40.261719 7.71875 C 40.261719 7.878906 40.140625 7.910156 39.871094 7.851562 L 39.199219 7.699219 C 38.910156 7.640625 38.898438 7.621094 38.898438 7.28125 C 38.882812 7.0625 38.707031 6.890625 38.488281 6.871094 C 38.378906 6.828125 38.257812 6.839844 38.15625 6.894531 C 38.050781 6.949219 37.976562 7.046875 37.949219 7.160156 C 37.921875 7.269531 37.921875 7.382812 37.949219 7.488281 C 38.03125 7.859375 38.03125 7.859375 38.039062 7.921875 Z M 38.660156 8.109375 "></path>
    <path style=" stroke:none;fill-rule:nonzero;fill:rgb(100%,100%,100%);fill-opacity:1;" d="M 26.511719 14.589844 C 25.71875 14.660156 22.699219 20.679688 22.699219 20.679688 C 22.621094 21.480469 24.789062 23.53125 26.109375 24.609375 C 27.429688 25.691406 27.300781 14.53125 26.511719 14.589844 Z M 26.511719 14.589844 "></path>
    <path style=" stroke:none;fill-rule:nonzero;fill:rgb(100%,100%,100%);fill-opacity:1;" d="M 17.691406 26.53125 C 17.691406 25.269531 17.199219 24.25 16.589844 24.25 C 15.984375 24.25 15.488281 25.269531 15.488281 26.53125 C 15.488281 27.789062 15.984375 28.808594 16.589844 28.808594 C 17.199219 28.808594 17.691406 27.789062 17.691406 26.53125 Z M 17.691406 26.53125 "></path>
    <path style=" stroke:none;fill-rule:nonzero;fill:rgb(100%,100%,100%);fill-opacity:1;" d="M 13.339844 25.539062 C 13.339844 24.601562 12.972656 23.839844 12.519531 23.839844 C 12.066406 23.839844 11.699219 24.601562 11.699219 25.539062 C 11.699219 26.480469 12.066406 27.238281 12.519531 27.238281 C 12.972656 27.238281 13.339844 26.480469 13.339844 25.539062 Z M 13.339844 25.539062 "></path>
    <path style=" stroke:none;fill-rule:nonzero;fill:rgb(100%,100%,100%);fill-opacity:1;" d="M 41.820312 2.371094 C 41.835938 3.105469 41.628906 3.832031 41.230469 4.449219 C 40.628906 4.820312 39.933594 5 39.230469 4.96875 C 39.953125 4.96875 40.660156 5.160156 41.28125 5.53125 C 41.636719 6.136719 41.824219 6.828125 41.828125 7.53125 C 41.84375 6.828125 42.035156 6.136719 42.390625 5.53125 C 43 5.175781 43.6875 4.984375 44.390625 4.96875 C 43.6875 4.964844 42.996094 4.777344 42.390625 4.421875 C 42.011719 3.804688 41.8125 3.09375 41.820312 2.371094 Z M 41.820312 2.371094 "></path>
    <path style=" stroke:none;fill-rule:nonzero;fill:rgb(100%,100%,100%);fill-opacity:1;" d="M 43.539062 5.910156 C 43.542969 6.203125 43.464844 6.492188 43.308594 6.738281 C 43.074219 6.90625 42.789062 6.996094 42.5 7 C 42.789062 6.996094 43.070312 7.074219 43.320312 7.21875 C 43.464844 7.46875 43.542969 7.75 43.539062 8.039062 C 43.542969 7.753906 43.621094 7.46875 43.761719 7.21875 C 44.011719 7.082031 44.292969 7.003906 44.578125 7 C 44.292969 7.003906 44.007812 6.925781 43.761719 6.78125 C 43.605469 6.515625 43.527344 6.214844 43.539062 5.910156 Z M 43.539062 5.910156 "></path>
  </g>
</svg>
