<?xml version="1.0" encoding="UTF-8" standalone="no"?>
<!DOCTYPE svg PUBLIC "-//W3C//DTD SVG 1.1//EN" "http://www.w3.org/Graphics/SVG/1.1/DTD/svg11.dtd">
<svg width="100%" height="100%" viewBox="0 0 20 46" version="1.1" xmlns="http://www.w3.org/2000/svg" xmlns:xlink="http://www.w3.org/1999/xlink" xml:space="preserve" xmlns:serif="http://www.serif.com/" style="fill-rule:evenodd;clip-rule:evenodd;stroke-linejoin:round;stroke-miterlimit:2;">
    <g transform="matrix(1,0,0,1,0,12)">
        <path d="M18.098,21.341L1.802,21.341C1.22,21.341 0.754,20.868 0.754,20.278L0.754,18.387C0.754,17.797 1.22,17.324 1.802,17.324L18.081,17.324C18.663,17.324 19.129,17.797 19.129,18.387L19.129,20.278C19.146,20.852 18.68,21.341 18.098,21.341ZM1.918,20.16L17.982,20.16L17.982,18.505L1.918,18.505L1.918,20.16Z" style="fill:rgb(0,111,116);fill-rule:nonzero;"/>
    </g>
    <g transform="matrix(1,0,0,1,0,12)">
        <path d="M15.92,34L3.997,34C3.448,34 2.983,33.561 2.949,33.004L2.118,21.307C2.101,21.003 2.201,20.717 2.401,20.497C2.6,20.278 2.883,20.16 3.166,20.16L16.768,20.16C17.067,20.16 17.333,20.278 17.533,20.497C17.732,20.717 17.832,21.003 17.815,21.307L16.984,33.004C16.917,33.561 16.468,34 15.92,34ZM4.097,32.819L15.82,32.819L16.635,21.341L3.282,21.341L4.097,32.819Z" style="fill:rgb(0,111,116);fill-rule:nonzero;"/>
    </g>
    <g transform="matrix(1,0,0,1,0,12)">
        <path d="M9.95,18.488C9.634,18.488 9.368,18.218 9.368,17.898L9.368,3.247C9.368,2.926 9.634,2.656 9.95,2.656C10.266,2.656 10.532,2.926 10.532,3.247L10.532,17.915C10.532,18.235 10.266,18.488 9.95,18.488Z" style="fill:rgb(0,111,116);fill-rule:nonzero;"/>
    </g>
    <g transform="matrix(1,0,0,1,0,12)">
        <path d="M4.429,13.948C3.482,13.948 2.517,13.577 1.785,12.851C1.22,12.294 0.455,10.792 0.006,6.876C-0.027,6.555 0.073,6.235 0.306,5.998C0.538,5.762 0.854,5.661 1.17,5.694C5.028,6.116 6.508,6.876 7.073,7.45C7.788,8.159 8.187,9.121 8.187,10.134C8.187,11.146 7.805,12.108 7.107,12.834C6.375,13.56 5.411,13.948 4.429,13.948ZM1.187,6.859C1.503,9.458 2.035,11.416 2.617,11.99C3.631,13.003 5.277,13.003 6.275,11.973C6.757,11.467 7.023,10.809 7.023,10.117C7.023,9.408 6.741,8.749 6.259,8.26C5.693,7.703 3.748,7.163 1.187,6.859Z" style="fill:rgb(0,111,116);fill-rule:nonzero;"/>
    </g>
    <g transform="matrix(1,0,0,1,0,12)">
        <path d="M9.95,16.277C9.801,16.277 9.651,16.227 9.535,16.109L4.529,11.079C4.297,10.842 4.297,10.471 4.529,10.252C4.762,10.015 5.128,10.015 5.344,10.252L10.349,15.282C10.582,15.518 10.582,15.889 10.349,16.109C10.25,16.21 10.1,16.277 9.95,16.277Z" style="fill:rgb(0,111,116);fill-rule:nonzero;"/>
    </g>
    <g transform="matrix(1,0,0,1,0,12)">
        <path d="M15.604,8.294C14.606,8.294 13.675,7.906 12.96,7.197C11.497,5.711 11.48,3.298 12.943,1.812C13.492,1.238 14.972,0.462 18.83,0.006C19.146,-0.027 19.462,0.074 19.695,0.31C19.927,0.546 20.027,0.867 19.994,1.188C19.578,5.104 18.83,6.606 18.264,7.18C17.566,7.889 16.618,8.294 15.604,8.294C15.604,8.294 15.621,8.294 15.604,8.294ZM18.83,1.188C16.269,1.509 14.34,2.049 13.775,2.639C12.777,3.669 12.777,5.34 13.791,6.353C14.29,6.842 14.922,7.112 15.621,7.112C16.319,7.112 16.967,6.825 17.45,6.336C17.998,5.745 18.531,3.787 18.83,1.188Z" style="fill:rgb(0,111,116);fill-rule:nonzero;"/>
    </g>
    <g transform="matrix(1,0,0,1,0,12)">
        <path d="M10.133,10.674C9.983,10.674 9.834,10.623 9.717,10.505C9.485,10.269 9.485,9.897 9.717,9.678L14.673,4.597C14.905,4.361 15.271,4.361 15.487,4.597C15.72,4.834 15.72,5.205 15.487,5.424L10.549,10.488C10.432,10.606 10.283,10.674 10.133,10.674Z" style="fill:rgb(0,111,116);fill-rule:nonzero;"/>
    </g>
</svg>
