<?xml version="1.0" encoding="utf-8"?>
<!-- Generator: Adobe Illustrator 27.5.0, SVG Export Plug-In . SVG Version: 6.00 Build 0)  -->
<svg version="1.1" xmlns="http://www.w3.org/2000/svg" xmlns:xlink="http://www.w3.org/1999/xlink" x="0px" y="0px"
	 viewBox="0 0 2200 1466" style="enable-background:new 0 0 2200 1466;" xml:space="preserve">
<g id="background">
	<rect style="fill:#FFFFFF;" width="2200" height="1466"/>
</g>
<g id="Objects">
	<path d="M1086.574,670.039c-5.214-26.447-29.554-41.488-54.625-45.197c-28.476-4.213-57.528,2.229-84.534,11.102
		c-29.748,9.774-57.92,23.965-84.314,40.73c-18.749,11.909-36.652,25.089-53.966,39.006c12.062-20.151,23.542-40.65,34.414-61.465
		c18.196-34.836,34.745-70.592,49.38-107.109c0.907-0.306,1.767-0.799,2.506-1.516c51.687-50.142,100.843-105.54,131.291-171.494
		c8.532-18.48,15.561-37.609,20.776-57.288c7.57-29.346,10.108-65.888-7.992-92.117c-9.005-13.05-22.806-22.584-38.54-25.347
		c-17.156-3.013-34.349,0.812-49.95,8.107c-32.47,15.182-56.051,46.124-70.373,78.214c-15.24,34.145-21.656,71.681-21.296,108.956
		c0.465,48.217,11.265,95.556,23.345,142.021c-11.546,29.3-24.33,58.118-38.267,86.361c-16.119,32.664-33.718,64.621-52.728,95.715
		c5.067-42.813,7.032-86.079,1.44-128.929c-3.388-25.958-9.418-51.544-19.083-75.909c-8.041-20.272-19.144-40.299-36.382-54.204
		c-15.68-12.648-36.395-18.82-55.9-11.536c-19.26,7.192-32.436,24.184-40.124,42.676c-18.366,44.179-5.488,96.758,16.512,137.126
		c26.991,49.525,70.713,86.549,114.579,120.752c-13.858,21.227-28.375,42.02-43.564,62.304
		c-37.366,49.899-79.008,96.423-125.249,138.223c13.059-43.175,22.879-87.574,24.07-132.761c0.679-25.773-1.558-51.811-7.508-76.927
		c-4.429-18.696-12.362-37.379-25.315-51.795c-12.868-14.322-31.206-22.221-50.482-19.012
		c-20.099,3.347-36.275,18.917-46.466,35.762c-24.12,39.869-19.88,92.582-4.76,134.794c17.894,49.955,52.176,91.239,87.392,130.082
		c-50.406,42.638-105.175,80.093-163.136,111.705c-5.753,3.137-11.548,6.194-17.362,9.213
		c28.967-62.765,51.112-130.289,44.93-200.191c-2.35-24.284-9.896-51.784-29.779-67.702c-23.199-18.574-53.141-12.013-73.742,7.074
		c-22.73,21.059-32.756,52.768-35.061,82.925c-2.505,32.769,4.461,65.942,16.795,96.21c13.619,33.423,33.017,63.834,53.363,93.49
		c-55.009,26.686-112.525,48.126-171.677,63.711c-9.234,2.433-18.507,4.713-27.81,6.868c-8.378,1.941-4.832,14.833,3.554,12.891
		c70.246-16.27,138.531-40.664,203.35-72.227c25.414,42.896,53.244,85.648,93.315,116.264
		c35.621,27.215,85.101,47.219,130.169,34.427c21.379-6.068,41.579-20.29,47.242-42.735c0.081-0.257,0.152-0.525,0.209-0.809
		c0.063-0.267,0.109-0.528,0.142-0.785c7.724-41.756-33.002-71.131-65.794-87.107c-39.609-19.297-82.983-28.612-126.667-32.468
		c-16.031-1.415-32.111-2.085-48.199-2.273c60.604-32.178,117.8-70.717,170.483-114.682c1.756-1.466,3.492-2.953,5.236-4.431
		c53.323,46.152,112.824,91.327,185.893,95.709c20.14,1.208,40.521-1.17,59.679-7.566c23.643-8.287,46.992-25.165,55.077-49.868
		c7.913-24.178-3.924-47.619-23.339-62.07c-21.488-15.993-48.726-21.548-74.793-24.459c-32.242-3.602-64.825-1.496-96.74,3.928
		c-26.312,4.472-52.131,11.308-77.553,19.389c38.081-35.065,73.114-73.216,105.166-114.008
		c21.312-27.124,41.406-55.198,60.271-84.078c70.066,24.249,147.268,45.585,219.848,19.021
		c18.547-6.788,35.632-16.475,50.698-29.264C1075.482,727.254,1092.199,698.567,1086.574,670.039z M884.383,313.117
		c9.905-31.018,27.449-62.318,53.788-82.305c22.972-17.433,59.085-29.258,83.076-7.016c23.719,21.99,20.703,61.012,13.365,89.46
		c-18.16,68.529-58.915,127.664-106.226,179.442c-7.932,8.681-16.073,17.164-24.338,25.527
		c10.346-28.062,19.538-56.541,27.449-85.373c2.677-9.757,5.197-19.555,7.58-29.387c2.026-8.358-10.862-11.925-12.891-3.554
		c-9.457,39.02-21.283,77.423-35.197,115.061C874.632,448.773,863.205,379.437,884.383,313.117z M319.93,936.534
		c-1.679-27.59,2.59-57.261,17.542-81.016c12.408-19.712,36.841-38.999,61.123-28.092c22.872,10.274,31.13,39.922,33.331,62.669
		c6.221,70.339-16.924,138.013-46.55,200.813C353.661,1044.376,323.426,993.977,319.93,936.534z M509.945,1120.176
		c19.772,4.01,39.251,9.606,57.936,17.243c17.766,7.261,35.931,16.243,50.523,28.884c14.443,12.512,27.945,30.4,23.924,50.623
		c-4.192,17.875-19.963,28.749-36.741,33.806c-19.6,5.906-40.743,4.143-60.259-1.253c-44.191-12.219-79.985-43.529-107.542-79.12
		c-14.501-18.729-27.113-38.835-39.231-59.175C435.855,1110.917,473.335,1112.751,509.945,1120.176z M501.984,727.571
		c5.95-16.937,17.495-33.56,33.762-41.904c15.412-7.905,33.151-4.431,45.652,7.121c12.867,11.891,20.436,28.824,24.977,45.47
		c6.141,22.511,8.382,46.194,8.375,69.471c-0.014,50.897-11.889,100.84-27.18,149.154c-27.897-30.9-54.886-63.272-72.858-101.079
		C496.098,816.645,487.27,769.455,501.984,727.571z M767.734,942.14c25.357,0.654,52.63,3.408,75.938,14.172
		c18.077,8.349,36.41,22.937,36.541,44.638c0.157,26.122-25.44,45.209-47.776,53.037c-67.728,22.61-137.005-9.798-190.582-50.205
		c-13.06-9.85-25.608-20.361-37.993-31.047C656.625,954.697,711.644,940.693,767.734,942.14z M682.756,642.423
		c-24.914-36.233-42.522-82.566-34.45-127.086c3.234-17.835,11.395-36.391,25.935-47.866c14.494-11.439,33.338-11.582,48.785-1.949
		c16.484,10.279,27.756,28.069,35.472,45.479c9.754,22.009,15.983,45.786,19.877,69.493c8.364,50.92,4.951,103.198-2.075,154.143
		C741.818,707.582,707.708,678.711,682.756,642.423z M1045.173,736.017c-54.843,46.554-132.86,42.808-198.208,25.454
		c-17.695-4.699-35.116-10.341-52.433-16.273c41.141-35.483,85.711-68.471,136.299-88.974c24.96-10.116,52.347-18.69,79.468-19.37
		c21.234-0.533,46.847,4.007,58.564,23.896C1084.275,686.912,1065.143,718.575,1045.173,736.017z"/>
	<g>
		<g>
			<path style="fill:#A7C161;" d="M1981.134,315.033c-23.306,88.913-83.349,160.921-150.348,225.832
				c-12.968-49.347-24.805-99.347-24.688-150.259c0.134-56.628,16.8-115.489,56.984-155.384
				c25.05-24.871,65.668-40.981,95.419-21.98C1989.891,233.289,1990.587,279.004,1981.134,315.033z"/>
		</g>
		<g>
			<path style="fill:#A7C161;" d="M1721.325,746.909c-35.221-27.322-70.002-55.703-96.985-91.069
				c-30.007-39.338-49.737-89.014-43.075-138.038c4.15-30.559,23.752-63.318,54.478-65.958
				c32.425-2.785,57.207,28.548,69.802,58.555C1736.643,584.44,1733.284,666.29,1721.325,746.909z"/>
		</g>
		<g>
			<path style="fill:#A7C161;" d="M1989.977,740.743c-37.527,32.241-89.949,42.691-139.28,38.886
				c-44.351-3.42-87.081-17.184-129.159-31.89c61.162-53.865,128.039-101.185,207.088-115.333
				c32.035-5.737,71.801-1.972,87.092,26.754C2030.206,686.388,2013.367,720.646,1989.977,740.743z"/>
		</g>
		<g>
			<path style="fill:#A7C161;" d="M1530.466,969.917c-29.067-31.817-57.541-64.569-77.437-102.696
				c-22.126-42.407-32.762-92.975-18.361-138.587c8.974-28.432,33.031-56.421,62.737-53.889
				c31.349,2.673,49.812,36.596,56.881,67.253C1571.751,817.648,1555.105,895.075,1530.466,969.917z"/>
		</g>
		<g>
			<path style="fill:#A7C161;" d="M1774.292,1060.433c-45.268,15.446-96.072,5.981-138.977-15.165
				c-38.574-19.011-71.975-46.724-104.453-75.046c74.253-26.357,151.281-44.786,227.31-29.07
				c30.813,6.366,65.148,24.039,68.545,55.316C1829.934,1026.111,1802.508,1050.803,1774.292,1060.433z"/>
		</g>
		<g>
			<path style="fill:#A7C161;" d="M1588.851,1218.703c-6.095,28.02-38.632,42.189-67.298,42.375
				c-45.998,0.296-89.458-23.813-122.15-56.169c-29.389-29.089-51.411-64.543-72.412-100.271
				c75.761-1.424,151.632,5.232,216.194,42.732C1569.35,1162.562,1595.284,1189.142,1588.851,1218.703z"/>
		</g>
		<g>
			<path style="fill:#A7C161;" d="M1378.688,890.094c6.85,74.346-19.037,145.97-52.201,214.096
				c-23.58-34.08-46.473-68.977-60.496-107.88c-15.593-43.276-19.182-92.84,0.448-134.436
				c12.228-25.935,38.778-49.492,66.756-43.232C1362.722,825.248,1375.925,859.966,1378.688,890.094z"/>
		</g>
		<g>
			<path style="fill:#779B48;" d="M1121.013,1185.561c75.385-17.469,148.505-44.268,217.517-79.257
				c66.328-33.627,128.75-74.86,185.893-122.44c51.391-42.79,97.667-90.954,139.006-143.493
				c45.622-57.983,85.748-120.276,119.934-185.652c36.875-70.517,67.035-144.794,88.127-221.563
				c2.708-9.857,5.254-19.757,7.663-29.692c2.027-8.358-10.861-11.925-12.891-3.554c-18.669,76.995-46.511,151.596-81.525,222.626
				c-32.681,66.299-71.438,129.694-115.769,188.849c-39.31,52.455-83.349,101.184-132.5,144.591
				c-54.8,48.395-115.114,90.505-179.324,125.456c-66.908,36.419-138.049,64.912-211.724,84.33
				c-9.284,2.447-18.608,4.74-27.961,6.908C1109.081,1174.611,1112.627,1187.504,1121.013,1185.561L1121.013,1185.561z"/>
		</g>
	</g>
</g>
</svg>
